<?xml version="1.0" encoding="UTF-8" standalone="no"?>
<!DOCTYPE svg PUBLIC "-//W3C//DTD SVG 1.1//EN"
 "http://www.w3.org/Graphics/SVG/1.1/DTD/svg11.dtd">
<!-- Generated by graphviz version 2.48.0 (20210717.1556)
 -->
<!-- Title: G Pages: 1 -->
<svg width="907pt" height="69pt"
 viewBox="0.00 0.00 907.00 69.00" xmlns="http://www.w3.org/2000/svg" xmlns:xlink="http://www.w3.org/1999/xlink">
<g id="graph0" class="graph" transform="scale(1 1) rotate(0) translate(4 65)">
<title>G</title>
<polygon fill="white" stroke="transparent" points="-4,4 -4,-65 903,-65 903,4 -4,4"/>
<text text-anchor="middle" x="449.5" y="-7.8" font-family="Times New Roman,serif" font-size="14.00">EDD &#45; Proyecto 1 &#45; Cola de Prioridad</text>
<!-- nodo0 -->
<g id="node1" class="node">
<title>nodo0</title>
<polygon fill="salmon" stroke="#cd1076" points="85,-61 0,-61 0,-23 85,-23 85,-61"/>
<text text-anchor="middle" x="42.5" y="-45.8" font-family="Times New Roman,serif" font-size="14.00">PY&#45;003</text>
<text text-anchor="middle" x="42.5" y="-30.8" font-family="Times New Roman,serif" font-size="14.00">Prioridad: A</text>
</g>
<!-- nodo1 -->
<g id="node2" class="node">
<title>nodo1</title>
<polygon fill="salmon" stroke="#cd1076" points="206,-61 121,-61 121,-23 206,-23 206,-61"/>
<text text-anchor="middle" x="163.5" y="-45.8" font-family="Times New Roman,serif" font-size="14.00">PY&#45;004</text>
<text text-anchor="middle" x="163.5" y="-30.8" font-family="Times New Roman,serif" font-size="14.00">Prioridad: A</text>
</g>
<!-- nodo0&#45;&gt;nodo1 -->
<g id="edge1" class="edge">
<title>nodo0&#45;&gt;nodo1</title>
<path fill="none" stroke="black" d="M85.12,-42C93.32,-42 102.01,-42 110.5,-42"/>
<polygon fill="black" stroke="black" points="110.7,-45.5 120.7,-42 110.7,-38.5 110.7,-45.5"/>
</g>
<!-- nodo2 -->
<g id="node3" class="node">
<title>nodo2</title>
<polygon fill="salmon" stroke="#cd1076" points="327,-61 242,-61 242,-23 327,-23 327,-61"/>
<text text-anchor="middle" x="284.5" y="-45.8" font-family="Times New Roman,serif" font-size="14.00">PY&#45;007</text>
<text text-anchor="middle" x="284.5" y="-30.8" font-family="Times New Roman,serif" font-size="14.00">Prioridad: A</text>
</g>
<!-- nodo1&#45;&gt;nodo2 -->
<g id="edge2" class="edge">
<title>nodo1&#45;&gt;nodo2</title>
<path fill="none" stroke="black" d="M206.12,-42C214.32,-42 223.01,-42 231.5,-42"/>
<polygon fill="black" stroke="black" points="231.7,-45.5 241.7,-42 231.7,-38.5 231.7,-45.5"/>
</g>
<!-- nodo3 -->
<g id="node4" class="node">
<title>nodo3</title>
<polygon fill="salmon" stroke="#cd1076" points="447,-61 363,-61 363,-23 447,-23 447,-61"/>
<text text-anchor="middle" x="405" y="-45.8" font-family="Times New Roman,serif" font-size="14.00">PY&#45;002</text>
<text text-anchor="middle" x="405" y="-30.8" font-family="Times New Roman,serif" font-size="14.00">Prioridad: B</text>
</g>
<!-- nodo2&#45;&gt;nodo3 -->
<g id="edge3" class="edge">
<title>nodo2&#45;&gt;nodo3</title>
<path fill="none" stroke="black" d="M327.28,-42C335.52,-42 344.26,-42 352.77,-42"/>
<polygon fill="black" stroke="black" points="353,-45.5 363,-42 353,-38.5 353,-45.5"/>
</g>
<!-- nodo4 -->
<g id="node5" class="node">
<title>nodo4</title>
<polygon fill="salmon" stroke="#cd1076" points="567,-61 483,-61 483,-23 567,-23 567,-61"/>
<text text-anchor="middle" x="525" y="-45.8" font-family="Times New Roman,serif" font-size="14.00">PY&#45;005</text>
<text text-anchor="middle" x="525" y="-30.8" font-family="Times New Roman,serif" font-size="14.00">Prioridad: B</text>
</g>
<!-- nodo3&#45;&gt;nodo4 -->
<g id="edge4" class="edge">
<title>nodo3&#45;&gt;nodo4</title>
<path fill="none" stroke="black" d="M447.27,-42C455.49,-42 464.22,-42 472.73,-42"/>
<polygon fill="black" stroke="black" points="472.95,-45.5 482.95,-42 472.95,-38.5 472.95,-45.5"/>
</g>
<!-- nodo5 -->
<g id="node6" class="node">
<title>nodo5</title>
<polygon fill="salmon" stroke="#cd1076" points="688,-61 603,-61 603,-23 688,-23 688,-61"/>
<text text-anchor="middle" x="645.5" y="-45.8" font-family="Times New Roman,serif" font-size="14.00">PY&#45;001</text>
<text text-anchor="middle" x="645.5" y="-30.8" font-family="Times New Roman,serif" font-size="14.00">Prioridad: C</text>
</g>
<!-- nodo4&#45;&gt;nodo5 -->
<g id="edge5" class="edge">
<title>nodo4&#45;&gt;nodo5</title>
<path fill="none" stroke="black" d="M567.11,-42C575.29,-42 583.97,-42 592.45,-42"/>
<polygon fill="black" stroke="black" points="592.66,-45.5 602.66,-42 592.66,-38.5 592.66,-45.5"/>
</g>
<!-- nodo6 -->
<g id="node7" class="node">
<title>nodo6</title>
<polygon fill="salmon" stroke="#cd1076" points="809,-61 724,-61 724,-23 809,-23 809,-61"/>
<text text-anchor="middle" x="766.5" y="-45.8" font-family="Times New Roman,serif" font-size="14.00">PY&#45;006</text>
<text text-anchor="middle" x="766.5" y="-30.8" font-family="Times New Roman,serif" font-size="14.00">Prioridad: C</text>
</g>
<!-- nodo5&#45;&gt;nodo6 -->
<g id="edge6" class="edge">
<title>nodo5&#45;&gt;nodo6</title>
<path fill="none" stroke="black" d="M688.12,-42C696.32,-42 705.01,-42 713.5,-42"/>
<polygon fill="black" stroke="black" points="713.7,-45.5 723.7,-42 713.7,-38.5 713.7,-45.5"/>
</g>
<!-- nodo7 -->
<g id="node8" class="node">
<title>nodo7</title>
<polygon fill="salmon" stroke="#cd1076" points="899,-60 845,-60 845,-24 899,-24 899,-60"/>
<text text-anchor="middle" x="872" y="-38.3" font-family="Times New Roman,serif" font-size="14.00">NULL</text>
</g>
<!-- nodo6&#45;&gt;nodo7 -->
<g id="edge7" class="edge">
<title>nodo6&#45;&gt;nodo7</title>
<path fill="none" stroke="black" d="M809,-42C817.54,-42 826.47,-42 834.81,-42"/>
<polygon fill="black" stroke="black" points="834.97,-45.5 844.97,-42 834.97,-38.5 834.97,-45.5"/>
</g>
</g>
</svg>
